<svg xmlns="http://www.w3.org/2000/svg" xmlns:xlink="http://www.w3.org/1999/xlink" width="500" zoomAndPan="magnify" viewBox="0 0 375 374.999991" height="500" preserveAspectRatio="xMidYMid meet" version="1.0"><defs><g/><clipPath id="e967633e53"><path d="M 112.5 73.910156 L 262.5 73.910156 L 262.5 223.910156 L 112.5 223.910156 Z M 112.5 73.910156 " clip-rule="nonzero"/></clipPath></defs><g clip-path="url(#e967633e53)"><path fill="#ffffff" d="M 262.484375 148.902344 C 262.484375 190.25 228.84375 223.894531 187.492188 223.894531 C 186.027344 223.894531 184.566406 223.847656 183.121094 223.765625 L 183.121094 217.085938 C 184.566406 217.175781 186.023438 217.230469 187.492188 217.230469 C 225.167969 217.230469 255.820312 186.578125 255.820312 148.902344 C 255.820312 111.226562 225.167969 80.574219 187.492188 80.574219 C 186.023438 80.574219 184.566406 80.636719 183.121094 80.726562 C 147.476562 82.988281 119.164062 112.695312 119.164062 148.898438 C 119.164062 170.679688 129.421875 190.089844 145.339844 202.613281 L 145.339844 149.082031 C 145.339844 137.03125 149.289062 127.226562 157.414062 119.097656 C 165.539062 110.976562 175.34375 107.027344 187.390625 107.027344 C 199.453125 107.027344 209.296875 110.988281 217.496094 119.125 C 225.671875 127.25 229.644531 137.046875 229.644531 149.082031 C 229.644531 161.128906 225.664062 170.96875 217.46875 179.160156 C 209.277344 187.351562 199.4375 191.335938 187.390625 191.335938 C 185.574219 191.335938 185.078125 190.824219 184.800781 190.542969 C 184.519531 190.25 183.925781 189.644531 183.925781 187.667969 C 183.925781 185.769531 184.457031 185.242188 184.710938 184.988281 C 184.964844 184.738281 185.496094 184.203125 187.390625 184.203125 C 197.03125 184.203125 205.382812 180.738281 212.21875 173.902344 C 219.050781 167.070312 222.519531 158.714844 222.519531 149.082031 C 222.519531 139.554688 218.941406 130.988281 212.164062 124.300781 C 205.332031 117.570312 197 114.15625 187.390625 114.15625 C 177.753906 114.15625 169.4375 117.589844 162.667969 124.351562 C 155.898438 131.117188 152.46875 139.4375 152.46875 149.082031 L 152.46875 215.183594 C 150.007812 213.878906 147.628906 212.449219 145.339844 210.886719 C 125.53125 197.378906 112.5 174.632812 112.5 148.902344 C 112.5 109.019531 143.796875 76.320312 183.121094 74.046875 C 184.566406 73.960938 186.023438 73.910156 187.492188 73.910156 C 228.84375 73.910156 262.484375 107.550781 262.484375 148.902344 Z M 262.484375 148.902344 " fill-opacity="1" fill-rule="nonzero"/></g><g fill="#ffffff" fill-opacity="1"><g transform="translate(110.578122, 271.700505)"><g><path d="M 3.03125 0 L 8.75 0 L 8.75 -7.015625 L 12.890625 -7.015625 C 18.96875 -7.015625 22.890625 -10.578125 22.890625 -16.09375 C 22.890625 -21.640625 18.96875 -25.203125 12.890625 -25.203125 L 3.03125 -25.203125 Z M 8.71875 -11.953125 L 8.71875 -20.203125 L 12.421875 -20.203125 C 15.40625 -20.203125 17.0625 -18.6875 17.0625 -16.0625 C 17.0625 -13.421875 15.40625 -11.953125 12.421875 -11.953125 Z M 8.71875 -11.953125 "/></g></g></g><g fill="#ffffff" fill-opacity="1"><g transform="translate(134.518165, 271.700505)"><g><path d="M 2.734375 0 L 8.203125 0 L 8.203125 -8.359375 C 8.203125 -12.421875 10.109375 -13.9375 13.25 -13.9375 L 15.34375 -13.9375 L 15.34375 -18.90625 L 13.28125 -18.90625 C 10.515625 -18.90625 8.75 -18.140625 7.53125 -16.375 L 6.796875 -18.90625 L 2.734375 -18.90625 Z M 2.734375 0 "/></g></g></g><g fill="#ffffff" fill-opacity="1"><g transform="translate(151.0782, 271.700505)"><g><path d="M 12.03125 0.5 C 18.28125 0.5 22.609375 -3.5625 22.609375 -9.46875 C 22.609375 -15.34375 18.28125 -19.40625 12.03125 -19.40625 C 5.71875 -19.40625 1.40625 -15.34375 1.40625 -9.46875 C 1.40625 -3.5625 5.71875 0.5 12.03125 0.5 Z M 6.796875 -9.46875 C 6.796875 -12.5625 8.96875 -14.71875 12.03125 -14.71875 C 15.078125 -14.71875 17.203125 -12.5625 17.203125 -9.46875 C 17.203125 -6.375 15.078125 -4.21875 12.03125 -4.21875 C 8.96875 -4.21875 6.796875 -6.375 6.796875 -9.46875 Z M 6.796875 -9.46875 "/></g></g></g><g fill="#ffffff" fill-opacity="1"><g transform="translate(175.090249, 271.700505)"><g><path d="M 11.015625 0.5 C 13.75 0.5 16.09375 -0.46875 17.78125 -2.15625 L 18.4375 0 L 22.5 0 L 22.5 -26.640625 L 17.03125 -26.640625 L 17.03125 -17.421875 C 15.40625 -18.6875 13.359375 -19.40625 11.015625 -19.40625 C 5.40625 -19.40625 1.40625 -15.265625 1.40625 -9.46875 C 1.40625 -3.59375 5.40625 0.5 11.015625 0.5 Z M 6.796875 -9.46875 C 6.796875 -12.53125 8.921875 -14.71875 12.03125 -14.71875 C 15.078125 -14.71875 17.203125 -12.53125 17.203125 -9.46875 C 17.203125 -6.375 15.078125 -4.21875 12.03125 -4.21875 C 8.921875 -4.21875 6.796875 -6.375 6.796875 -9.46875 Z M 6.796875 -9.46875 "/></g></g></g><g fill="#ffffff" fill-opacity="1"><g transform="translate(200.326301, 271.700505)"><g><path d="M 10.265625 0.5 C 12.75 0.5 14.96875 -0.359375 16.484375 -2.125 L 17.0625 0 L 21.125 0 L 21.125 -18.90625 L 15.65625 -18.90625 L 15.65625 -9.03125 C 15.65625 -6.046875 14.046875 -4.21875 11.5625 -4.21875 C 9.25 -4.21875 7.84375 -5.828125 7.84375 -8.609375 L 7.84375 -18.90625 L 2.375 -18.90625 L 2.375 -8.0625 C 2.375 -2.8125 5.359375 0.5 10.265625 0.5 Z M 10.265625 0.5 "/></g></g></g><g fill="#ffffff" fill-opacity="1"><g transform="translate(224.194349, 271.700505)"><g><path d="M 11.734375 0.5 C 17.0625 0.5 21.0625 -2.625 22.0625 -7.59375 L 16.734375 -7.59375 C 15.984375 -5.546875 14.109375 -4.21875 11.8125 -4.21875 C 8.859375 -4.21875 6.796875 -6.375 6.796875 -9.46875 C 6.796875 -12.5625 8.859375 -14.71875 11.8125 -14.71875 C 13.96875 -14.71875 15.734375 -13.578125 16.625 -11.65625 L 21.890625 -11.65625 C 21.03125 -16.34375 16.984375 -19.40625 11.734375 -19.40625 C 5.6875 -19.40625 1.40625 -15.265625 1.40625 -9.46875 C 1.40625 -3.640625 5.65625 0.5 11.734375 0.5 Z M 11.734375 0.5 "/></g></g></g><g fill="#ffffff" fill-opacity="1"><g transform="translate(247.594391, 271.700505)"><g><path d="M 11.84375 0 L 15.296875 0 L 15.296875 -4.75 L 13.03125 -4.75 C 10.875 -4.75 9.859375 -5.796875 9.859375 -7.984375 L 9.859375 -14.4375 L 15.046875 -14.4375 L 15.046875 -18.90625 L 9.859375 -18.90625 L 9.859375 -23.796875 L 5.609375 -23.796875 L 5.296875 -21.34375 C 5 -19.40625 4.46875 -18.90625 2.40625 -18.90625 L 0.71875 -18.90625 L 0.71875 -14.4375 L 4.390625 -14.4375 L 4.390625 -7.15625 C 4.390625 -2.5625 7.0625 0 11.84375 0 Z M 11.84375 0 "/></g></g></g><g fill="#ffffff" fill-opacity="1"><g transform="translate(141.975471, 296.59463)"><g><path d="M 1.6875 0 L 2.609375 0 L 2.609375 -8.8125 L 6.546875 -2.921875 L 7.296875 -2.921875 L 11.21875 -8.8125 L 11.21875 0 L 12.125 0 L 12.125 -10.5 L 11.28125 -10.5 L 6.921875 -3.9375 L 2.546875 -10.5 L 1.6875 -10.5 Z M 1.6875 0 "/></g></g></g><g fill="#ffffff" fill-opacity="1"><g transform="translate(158.655472, 296.59463)"><g><path d="M 0.328125 0 L 1.3125 0 L 2.390625 -2.640625 L 7.84375 -2.640625 L 8.9375 0 L 9.90625 0 L 5.546875 -10.5 L 4.6875 -10.5 Z M 2.75 -3.484375 L 5.109375 -9.25 L 7.5 -3.484375 Z M 2.75 -3.484375 "/></g></g></g><g fill="#ffffff" fill-opacity="1"><g transform="translate(171.765476, 296.59463)"><g><path d="M 4.1875 0 L 5.078125 0 L 5.078125 -9.625 L 8.71875 -9.625 L 8.71875 -10.5 L 0.5625 -10.5 L 0.5625 -9.625 L 4.1875 -9.625 Z M 4.1875 0 "/></g></g></g><g fill="#ffffff" fill-opacity="1"><g transform="translate(183.915482, 296.59463)"><g><path d="M 1.6875 0 L 8.046875 0 L 8.046875 -0.859375 L 2.609375 -0.859375 L 2.609375 -4.9375 L 7.484375 -4.9375 L 7.484375 -5.78125 L 2.609375 -5.78125 L 2.609375 -9.640625 L 7.875 -9.640625 L 7.875 -10.5 L 1.6875 -10.5 Z M 1.6875 0 "/></g></g></g><g fill="#ffffff" fill-opacity="1"><g transform="translate(195.915489, 296.59463)"><g><path d="M 6.265625 0.1875 C 9.46875 0.1875 11.59375 -2.1875 11.5625 -5.515625 L 5.9375 -5.515625 L 5.9375 -4.65625 L 10.59375 -4.65625 C 10.390625 -2.359375 8.734375 -0.71875 6.28125 -0.71875 C 3.6875 -0.71875 1.890625 -2.5625 1.890625 -5.25 C 1.890625 -7.9375 3.671875 -9.78125 6.28125 -9.78125 C 8.15625 -9.78125 9.59375 -8.8125 10.265625 -7.265625 L 11.25 -7.265625 C 10.578125 -9.296875 8.671875 -10.6875 6.234375 -10.6875 C 3.171875 -10.6875 0.953125 -8.4375 0.953125 -5.25 C 0.953125 -2.0625 3.171875 0.1875 6.265625 0.1875 Z M 6.265625 0.1875 "/></g></g></g><g fill="#ffffff" fill-opacity="1"><g transform="translate(211.260494, 296.59463)"><g><path d="M 1.6875 0 L 2.609375 0 L 2.609375 -3.59375 L 5.03125 -3.59375 C 7.453125 -3.59375 8.890625 -4.875 8.890625 -7.046875 C 8.890625 -9.21875 7.453125 -10.5 5.03125 -10.5 L 1.6875 -10.5 Z M 2.609375 -4.4375 L 2.609375 -9.625 L 5.015625 -9.625 C 6.96875 -9.625 7.984375 -8.75 7.984375 -7.03125 C 7.984375 -5.328125 6.96875 -4.4375 5.015625 -4.4375 Z M 2.609375 -4.4375 "/></g></g></g><g fill="#ffffff" fill-opacity="1"><g transform="translate(223.725501, 296.59463)"><g><path d="M 4.1875 0 L 5.078125 0 L 5.078125 -9.625 L 8.71875 -9.625 L 8.71875 -10.5 L 0.5625 -10.5 L 0.5625 -9.625 L 4.1875 -9.625 Z M 4.1875 0 "/></g></g></g></svg>